<?xml version="1.0" encoding="utf-8"?>
<!-- Generator: Adobe Illustrator 24.1.3, SVG Export Plug-In . SVG Version: 6.00 Build 0)  -->
<svg version="1.1" id="Layer_1" xmlns="http://www.w3.org/2000/svg" xmlns:xlink="http://www.w3.org/1999/xlink" x="0px" y="0px"
	 viewBox="0 0 450.8 407.4" style="enable-background:new 0 0 450.8 407.4;" xml:space="preserve">
<style type="text/css">
	.st0{enable-background:new    ;}
	.st1{fill:#547C8E;}
	.st2{fill:#93ACB8;}
	.st3{fill:#A4B9C3;}
	.st4{fill:#CBD7DD;}
	.st5{fill:#8EA9B5;}
	.st6{fill:#FFFFFF;}
</style>
<g id="Layer_2_1_">
	<g id="Layer_1-2">
		<g class="st0">
			<path class="st1" d="M12.4,298.7v-73.2h17v73.2c0,26.6,14.7,39.5,34.9,39.5s35.4-13.4,35.4-39.5v-73.2h17v73.2
				c0,26.1,14.9,39.5,35.2,39.5c20.3,0,34.9-12.9,34.9-39.5v-73.2h17v73.2c0,37.2-21.8,55.2-50.6,55.2c-20.5,0-37.2-9.6-45.1-28.1
				c-8.1,18.5-24.8,28.1-45.1,28.1C34.2,353.9,12.4,336,12.4,298.7z"/>
		</g>
		<g class="st0">
			<path class="st1" d="M213.4,287.1c0-38.5,28.1-65.3,64.8-65.3c23.8,0,43.3,11.1,52.7,30.1v-81.5h17v116.5
				c0,40.3-28.1,66.6-66.8,66.6C241.3,353.5,213.4,325.6,213.4,287.1z M330.9,287.6c0-28.9-20-50.1-50.1-50.1
				c-29.9,0-50.1,21.3-50.1,50.1c0,28.9,20.3,50.1,50.1,50.1C310.9,337.8,330.9,316.5,330.9,287.6z"/>
		</g>
		<g id="Layer_2-2">
			<g id="object">
				<path class="st1" d="M405.5,33.2c0,5.7-4.1,10.4-9.1,10.4s-9.1-4.6-9.1-10.4s5.2-19.1,9.1-19.1
					C399.7,14.1,405.5,27.5,405.5,33.2z"/>
				<path class="st1" d="M361.8,56.3c0,3.8-2,6.8-4.5,6.8s-4.5-3.1-4.5-6.8s2.6-12.6,4.5-12.6C358.9,43.7,361.8,52.5,361.8,56.3z"/>
				<path class="st1" d="M300.8,53.1c0,6.4-4.4,11.6-9.8,11.6s-9.8-5.2-9.8-11.6s5.6-21.4,9.9-21.4
					C294.5,31.7,300.8,46.7,300.8,53.1z"/>
				<path class="st1" d="M338.8,26.6c0,8-4.3,14.5-9.7,14.5s-9.7-6.5-9.7-14.5S325,0,329.2,0C332.6,0,338.8,18.6,338.8,26.6z"/>
				<path class="st2" d="M280.1,164.3L280.1,164.3c5-7.3,15.7-10.2,28.3-10.2c11.9,0,22.1,3,27.4,9.5V74.4
					C329.1,79,280.2,113.4,280.1,164.3z"/>
				<path class="st3" d="M336.9,74.4v90.3c4.8-7.2,15.4-10.8,27.6-10.8c12.6,0,23.3,3.9,27.9,11.5l0-0.1
					C392.1,114.5,343.5,79,336.9,74.4z"/>
				<path class="st4" d="M287.6,127.2c5.5-10.9,12.5-21,20.9-30c6.2-6.8,12.9-13,20.2-18.7c2-1.6,3.8-3.5,6.1-4.8l0.5-0.2
					C273.5,74,223.6,114.2,222.3,164c0,0.2,0.2,0.4,0.4,0.4c0.1,0,0.3-0.1,0.4-0.2c5.1-6.8,15.6-9.5,27.9-9.8
					c20-0.5,28.1,9.5,28.1,9.5C278.9,150.4,281.6,139.4,287.6,127.2z"/>
				<path class="st5" d="M337.2,73.5c0.2,0.1,0.4,0.3,0.7,0.5c1.9,1.5,3.9,2.8,5.8,4.3c7.1,5.7,13.8,11.9,19.8,18.7
					c8.3,9,15.2,19.2,20.6,30.2c2.9,5.9,5.1,12.2,6.7,18.6c0.4,1.4,2.5,15.1,2.6,19.4c0,0.1,0,0.2,0,0.2
					c4.7-7.5,15.7-11.1,28.5-11.1c11.1,0,20.8,2.7,26.3,8.4c0.5,0.5,1.3,0.5,1.8,0.1c0.3-0.2,0.4-0.6,0.4-0.9
					C447.6,112.9,398.1,73.9,337.2,73.5z"/>
				<path class="st6" d="M337.2,73h-2.1c-29.9,0.3-58.1,9.8-79.3,26.9s-33.3,39.8-34,64.1c0,0.2,0.1,0.5,0.3,0.7
					c0.4,0.4,1,0.4,1.3,0c0,0,0,0,0,0c0,0,0,0,0.1-0.1c4.7-6.2,14.4-9.6,27.5-9.6c13.1,0,22.9,3.3,27.6,9.2c0.2,0.3,0.4,0.6,0.6,0.9
					c0,0.2,0.2,0.4,0.4,0.4c0.1,0,0.6-0.3,0.5-0.3l0.4-0.5c4.7-6.4,14.9-10,27.9-10c12.5,0,22.1,3.3,27.1,9.3
					c0.3,0.4,0.7,1.1,1.2,1.2s1-0.8,1.3-1.2c0.4-0.5,0.8-1,1.3-1.5c1-1,2-1.8,3.1-2.6c2.6-1.7,5.4-2.9,8.3-3.7
					c3.5-0.9,7.1-1.5,10.7-1.6c1-0.1,2-0.1,3-0.1c12.9,0,23.9,4.5,28.2,11.6h0.4c4.4-6.9,15.4-11.2,28.9-11.2
					c11.6,0,20.8,2.9,25.9,8.2c0.7,0.7,1.8,0.7,2.5,0c0,0,0,0,0,0c0.3-0.3,0.5-0.8,0.5-1.3C448.1,112.3,398.2,73.3,337.2,73z
					 M278.6,162.6L278.6,162.6L278.6,162.6c-5.2-5.5-14.9-8.6-27.6-8.6c-13.3,0-23.3,3.5-28.2,9.8c0.7-23.9,12.6-46.3,33.6-63.2
					c20.7-16.6,48-26,76.9-26.6c-1,0.8-2,1.6-3,2.4c-0.7,0.6-1.3,1.2-2,1.7c-7.3,5.7-14,11.9-20.2,18.7c-8.4,9-15.5,19.1-21,30.1
					C281.2,139,278.6,149.8,278.6,162.6L278.6,162.6z M335.4,162.3c-5.3-5.6-14.8-8.7-27-8.7c-12.6,0-22.6,3.4-27.8,9.3
					c0.4-20.8,8.9-41.2,25.2-60.6c8.7-10.2,18.6-19.3,29.5-27V162.3z M336.2,73.5L336.2,73.5z M364.4,153.5
					c-12.3,0-22.1,3.5-27.1,9.8V75.3c8.2,5.9,53.3,40.2,54.4,88.4C386.8,157.3,376.8,153.5,364.4,153.5L364.4,153.5z M449.6,162.3
					c-0.1,0.2-0.4,0.2-0.6,0.2c-0.2,0-0.4-0.1-0.6-0.2c-5.3-5.5-14.7-8.5-26.6-8.5c-13,0-23.1,3.7-28.1,10.1
					c-0.4-5.3-2.2-16.9-2.5-18.2c-1.6-6.4-3.9-12.7-6.8-18.7c-5.4-11-12.4-21.3-20.7-30.3c-6.1-6.8-12.7-13-19.9-18.7
					c-1.3-1-2.6-2-3.9-3l-1.3-0.9c59.7,1,108.4,39.3,111.1,87.8C449.9,162,449.8,162.2,449.6,162.3L449.6,162.3z"/>
			</g>
		</g>
	</g>
</g>
</svg>
